<svg xmlns="http://www.w3.org/2000/svg" xmlns:xlink="http://www.w3.org/1999/xlink" contentStyleType="text/css" data-diagram-type="DESCRIPTION" height="584px" preserveAspectRatio="none" style="width:547px;height:584px;background:#1B1B1B;" version="1.1" viewBox="0 0 547 584" width="547px" zoomAndPan="magnify"><defs/><g><rect fill="#1B1B1B" height="584" style="stroke:none;stroke-width:1;" width="547" x="0" y="0"/><!--cluster Docker Container--><g class="cluster" data-entity="Docker Container" data-source-line="6" data-uid="ent0003" id="cluster_Docker Container"><polygon fill="none" points="16,138.79,26,128.79,530,128.79,530,557.98,520,567.98,16,567.98,16,138.79" style="stroke:#E7E7E7;stroke-width:1;"/><line style="stroke:#E7E7E7;stroke-width:1;" x1="520" x2="530" y1="138.79" y2="128.79"/><line style="stroke:#E7E7E7;stroke-width:1;" x1="16" x2="520" y1="138.79" y2="138.79"/><line style="stroke:#E7E7E7;stroke-width:1;" x1="520" x2="520" y1="138.79" y2="567.98"/><text fill="#FFFFFF" font-family="sans-serif" font-size="14" font-weight="bold" lengthAdjust="spacing" textLength="137.2861" x="200.3569" y="154.7851">Docker Container</text></g><!--entity nginx--><g class="entity" data-entity="nginx" data-source-line="7" data-uid="ent0004" id="entity_nginx"><rect fill="#313139" height="46.2969" rx="2.5" ry="2.5" style="stroke:#E7E7E7;stroke-width:0.5;" width="80.4072" x="225.8" y="168.79"/><rect fill="#313139" height="10" style="stroke:#E7E7E7;stroke-width:0.5;" width="15" x="286.2072" y="173.79"/><rect fill="#313139" height="2" style="stroke:#E7E7E7;stroke-width:0.5;" width="4" x="284.2072" y="175.79"/><rect fill="#313139" height="2" style="stroke:#E7E7E7;stroke-width:0.5;" width="4" x="284.2072" y="179.79"/><text fill="#FFFFFF" font-family="sans-serif" font-size="14" lengthAdjust="spacing" textLength="40.4072" x="240.8" y="201.7851">Nginx</text></g><!--entity clientesService--><g class="entity" data-entity="clientesService" data-source-line="9" data-uid="ent0005" id="entity_clientesService"><rect fill="#313139" height="46.2969" rx="2.5" ry="2.5" style="stroke:#E7E7E7;stroke-width:0.5;" width="152.6289" x="31.69" y="399.39"/><rect fill="#313139" height="10" style="stroke:#E7E7E7;stroke-width:0.5;" width="15" x="164.3189" y="404.39"/><rect fill="#313139" height="2" style="stroke:#E7E7E7;stroke-width:0.5;" width="4" x="162.3189" y="406.39"/><rect fill="#313139" height="2" style="stroke:#E7E7E7;stroke-width:0.5;" width="4" x="162.3189" y="410.39"/><text fill="#FFFFFF" font-family="sans-serif" font-size="14" lengthAdjust="spacing" textLength="112.6289" x="46.69" y="432.3851">Clientes Service</text></g><!--entity clientesDB--><g class="entity" data-entity="clientesDB" data-source-line="10" data-uid="ent0006" id="entity_clientesDB"><path d="M57.36,516.68 C57.36,506.68 107.9962,506.68 107.9962,506.68 C107.9962,506.68 158.6325,506.68 158.6325,516.68 L158.6325,541.9769 C158.6325,551.9769 107.9962,551.9769 107.9962,551.9769 C107.9962,551.9769 57.36,551.9769 57.36,541.9769 L57.36,516.68" fill="#313139" style="stroke:#E7E7E7;stroke-width:0.5;"/><path d="M57.36,516.68 C57.36,526.68 107.9962,526.68 107.9962,526.68 C107.9962,526.68 158.6325,526.68 158.6325,516.68" fill="none" style="stroke:#E7E7E7;stroke-width:0.5;"/><text fill="#FFFFFF" font-family="sans-serif" font-size="14" lengthAdjust="spacing" textLength="81.2725" x="67.36" y="543.6751">Clientes DB</text></g><!--entity productosService--><g class="entity" data-entity="productosService" data-source-line="12" data-uid="ent0007" id="entity_productosService"><rect fill="#313139" height="46.2969" rx="2.5" ry="2.5" style="stroke:#E7E7E7;stroke-width:0.5;" width="165.7607" x="348.12" y="399.39"/><rect fill="#313139" height="10" style="stroke:#E7E7E7;stroke-width:0.5;" width="15" x="493.8807" y="404.39"/><rect fill="#313139" height="2" style="stroke:#E7E7E7;stroke-width:0.5;" width="4" x="491.8807" y="406.39"/><rect fill="#313139" height="2" style="stroke:#E7E7E7;stroke-width:0.5;" width="4" x="491.8807" y="410.39"/><text fill="#FFFFFF" font-family="sans-serif" font-size="14" lengthAdjust="spacing" textLength="125.7607" x="363.12" y="432.3851">Productos Service</text></g><!--entity productosDB--><g class="entity" data-entity="productosDB" data-source-line="13" data-uid="ent0008" id="entity_productosDB"><path d="M373.8,516.68 C373.8,506.68 431.0021,506.68 431.0021,506.68 C431.0021,506.68 488.2043,506.68 488.2043,516.68 L488.2043,541.9769 C488.2043,551.9769 431.0021,551.9769 431.0021,551.9769 C431.0021,551.9769 373.8,551.9769 373.8,541.9769 L373.8,516.68" fill="#313139" style="stroke:#E7E7E7;stroke-width:0.5;"/><path d="M373.8,516.68 C373.8,526.68 431.0021,526.68 431.0021,526.68 C431.0021,526.68 488.2043,526.68 488.2043,516.68" fill="none" style="stroke:#E7E7E7;stroke-width:0.5;"/><text fill="#FFFFFF" font-family="sans-serif" font-size="14" lengthAdjust="spacing" textLength="94.4043" x="383.8" y="543.6751">Productos DB</text></g><!--entity ventasService--><g class="entity" data-entity="ventasService" data-source-line="15" data-uid="ent0009" id="entity_ventasService"><rect fill="#313139" height="46.2969" rx="2.5" ry="2.5" style="stroke:#E7E7E7;stroke-width:0.5;" width="144.6172" x="193.69" y="276.09"/><rect fill="#313139" height="10" style="stroke:#E7E7E7;stroke-width:0.5;" width="15" x="318.3072" y="281.09"/><rect fill="#313139" height="2" style="stroke:#E7E7E7;stroke-width:0.5;" width="4" x="316.3072" y="283.09"/><rect fill="#313139" height="2" style="stroke:#E7E7E7;stroke-width:0.5;" width="4" x="316.3072" y="287.09"/><text fill="#FFFFFF" font-family="sans-serif" font-size="14" lengthAdjust="spacing" textLength="104.6172" x="208.69" y="309.0851">Ventas Service</text></g><!--entity ventasDB--><g class="entity" data-entity="ventasDB" data-source-line="16" data-uid="ent0010" id="entity_ventasDB"><path d="M219.37,409.89 C219.37,399.89 266.0004,399.89 266.0004,399.89 C266.0004,399.89 312.6307,399.89 312.6307,409.89 L312.6307,435.1869 C312.6307,445.1869 266.0004,445.1869 266.0004,445.1869 C266.0004,445.1869 219.37,445.1869 219.37,435.1869 L219.37,409.89" fill="#313139" style="stroke:#E7E7E7;stroke-width:0.5;"/><path d="M219.37,409.89 C219.37,419.89 266.0004,419.89 266.0004,419.89 C266.0004,419.89 312.6307,419.89 312.6307,409.89" fill="none" style="stroke:#E7E7E7;stroke-width:0.5;"/><text fill="#FFFFFF" font-family="sans-serif" font-size="14" lengthAdjust="spacing" textLength="73.2607" x="229.37" y="436.8851">Ventas DB</text></g><!--entity Usuario--><g class="entity" data-entity="Usuario" data-source-line="1" data-uid="ent0002" id="entity_Usuario"><ellipse cx="266.0021" cy="14" fill="#313139" rx="8" ry="8" style="stroke:#E7E7E7;stroke-width:0.5;"/><path d="M266.0021,22 L266.0021,49 M253.0021,30 L279.0021,30 M266.0021,49 L253.0021,64 M266.0021,49 L279.0021,64" fill="none" style="stroke:#E7E7E7;stroke-width:0.5;"/><text fill="#FFFFFF" font-family="sans-serif" font-size="14" lengthAdjust="spacing" textLength="53.2041" x="239.4" y="78.4951">Usuario</text></g><!--link Usuario to nginx--><g class="link" data-entity-1="Usuario" data-entity-2="nginx" data-source-line="21" data-uid="lnk11" id="link_Usuario_nginx"><path d="M266,81.94 C266,109.2 266,139.28 266,162.31" fill="none" id="Usuario-to-nginx" style="stroke:#E7E7E7;stroke-width:1;"/><polygon fill="#E7E7E7" points="266,168.31,270,159.31,266,163.31,262,159.31,266,168.31" style="stroke:#E7E7E7;stroke-width:1;"/></g><!--link nginx to clientesService--><g class="link" data-entity-1="nginx" data-entity-2="clientesService" data-source-line="22" data-uid="lnk12" id="link_nginx_clientesService"><path d="M227.17,215.55 C185.69,242.22 122.36,290.82 96,352.39 C89.67,367.17 91.1125,379.4149 95.8825,393.3149" fill="none" id="nginx-to-clientesService" style="stroke:#E7E7E7;stroke-width:1;"/><polygon fill="#E7E7E7" points="97.83,398.99,98.6922,389.179,96.2071,394.2607,91.1253,391.7756,97.83,398.99" style="stroke:#E7E7E7;stroke-width:1;"/></g><!--link nginx to productosService--><g class="link" data-entity-1="nginx" data-entity-2="productosService" data-source-line="23" data-uid="lnk13" id="link_nginx_productosService"><path d="M306.34,210.78 C355.25,234.92 435.3,283.06 469,352.39 C476.73,368.28 470.937,381.165 459.397,394.555" fill="none" id="nginx-to-productosService" style="stroke:#E7E7E7;stroke-width:1;"/><polygon fill="#E7E7E7" points="455.48,399.1,464.3855,394.8939,458.7442,395.3125,458.3256,389.6712,455.48,399.1" style="stroke:#E7E7E7;stroke-width:1;"/></g><!--link nginx to ventasService--><g class="link" data-entity-1="nginx" data-entity-2="ventasService" data-source-line="24" data-uid="lnk14" id="link_nginx_ventasService"><path d="M266,215.53 C266,233.3 266,251.93 266,269.69" fill="none" id="nginx-to-ventasService" style="stroke:#E7E7E7;stroke-width:1;"/><polygon fill="#E7E7E7" points="266,275.69,270,266.69,266,270.69,262,266.69,266,275.69" style="stroke:#E7E7E7;stroke-width:1;"/></g><!--link ventasService to clientesService--><g class="link" data-entity-1="ventasService" data-entity-2="clientesService" data-source-line="29" data-uid="lnk15" id="link_ventasService_clientesService"><path d="M193.22,307.21 C163.32,314 131.24,327.13 112,352.39 C102.02,365.49 100.8621,378.4119 102.6121,393.1419" fill="none" id="ventasService-to-clientesService" style="stroke:#E7E7E7;stroke-width:1;"/><polygon fill="#E7E7E7" points="103.32,399.1,106.2303,389.6909,102.7301,394.1349,98.2862,390.6348,103.32,399.1" style="stroke:#E7E7E7;stroke-width:1;"/><text fill="#FFFFFF" font-family="sans-serif" font-size="13" lengthAdjust="spacing" textLength="144.7583" x="113" y="365.4569">Verifica cliente (HTTP)</text></g><!--link ventasService to productosService--><g class="link" data-entity-1="ventasService" data-entity-2="productosService" data-source-line="30" data-uid="lnk16" id="link_ventasService_productosService"><path d="M273.79,322.74 C279.96,337.68 289.9,356.79 304,369.39 C317.87,381.77 329.5651,389.0634 346.7951,396.5334" fill="none" id="ventasService-to-productosService" style="stroke:#E7E7E7;stroke-width:1;"/><polygon fill="#E7E7E7" points="352.3,398.92,345.6337,391.6701,347.7126,396.9311,342.4516,399.01,352.3,398.92" style="stroke:#E7E7E7;stroke-width:1;"/><text fill="#FFFFFF" font-family="sans-serif" font-size="13" lengthAdjust="spacing" textLength="159.2944" x="305" y="365.4569">Verifica producto (HTTP)</text></g><!--link clientesService to clientesDB--><g class="link" data-entity-1="clientesService" data-entity-2="clientesDB" data-source-line="35" data-uid="lnk17" id="link_clientesService_clientesDB"><path d="M108,446.02 C108,463.82 108,482.55 108,500.25" fill="none" id="clientesService-to-clientesDB" style="stroke:#E7E7E7;stroke-width:1;"/><polygon fill="#E7E7E7" points="108,506.25,112,497.25,108,501.25,104,497.25,108,506.25" style="stroke:#E7E7E7;stroke-width:1;"/></g><!--link productosService to productosDB--><g class="link" data-entity-1="productosService" data-entity-2="productosDB" data-source-line="36" data-uid="lnk18" id="link_productosService_productosDB"><path d="M431,446.02 C431,463.82 431,482.55 431,500.25" fill="none" id="productosService-to-productosDB" style="stroke:#E7E7E7;stroke-width:1;"/><polygon fill="#E7E7E7" points="431,506.25,435,497.25,431,501.25,427,497.25,431,506.25" style="stroke:#E7E7E7;stroke-width:1;"/></g><!--link ventasService to ventasDB--><g class="link" data-entity-1="ventasService" data-entity-2="ventasDB" data-source-line="37" data-uid="lnk19" id="link_ventasService_ventasDB"><path d="M266,322.77 C266,344.69 266,371.79 266,393.53" fill="none" id="ventasService-to-ventasDB" style="stroke:#E7E7E7;stroke-width:1;"/><polygon fill="#E7E7E7" points="266,399.53,270,390.53,266,394.53,262,390.53,266,399.53" style="stroke:#E7E7E7;stroke-width:1;"/></g><!--SRC=[ZL91JiCm4Bpd5QjSW4C_W0GIROGueKgKtfUDGGl1ZkoaGaAyYYVmCJQEqyH9eF4XiNPdnfxn8bN6mgEhqR99aZEu-cT9UsDqfRJAXPGPUbFs54MRN47QOZqRMIkRmcS2iiYybqOhNK5w_yBw8mLqe9jTCkvl2fQ_Sl2Wx859UIY5OgXvJeuLFg5J0qgsZj3PUgA-jIQl9OjOlkogy_ezAHnmnC-Si9Slnl87NvhN3l0Wt28xrHEHjv3RedurSYFMn2KM8C_0OjuY4VzywwL2OJHWjReE3zDK_SxNvbwWxyu6sBVZ09PxssF1EH9BjAvrfIKaSTYcjbGeEdxE3LoAekLd9knQS7wtssql_k2F_Gu5kbwdiDpk3P5o1X2QqV0-PKwC7xUIbziTcniQbj5g89FxHwO2Q6hxE9vVlm00]--></g></svg>